<?xml version="1.0" standalone="no"?><!DOCTYPE svg PUBLIC "-//W3C//DTD SVG 1.1//EN" "http://www.w3.org/Graphics/SVG/1.1/DTD/svg11.dtd"><svg t="1688457552135" class="icon" viewBox="0 0 1024 1024" version="1.1" xmlns="http://www.w3.org/2000/svg" p-id="6652" xmlns:xlink="http://www.w3.org/1999/xlink" width="200" height="200"><path d="M512 213.333333c-83.2 0-149.333333 66.133333-149.333333 149.333334s66.133333 149.333333 149.333333 149.333333 149.333333-66.133333 149.333333-149.333333-66.133333-149.333333-149.333333-149.333334z m0 256c-57.6 0-106.666667-46.933333-106.666667-106.666666 0-57.6 46.933333-104.533333 106.666667-104.533334s106.666667 46.933333 106.666667 106.666667c0 55.466667-49.066667 104.533333-106.666667 104.533333z" fill="#1296db" p-id="6653"></path><path d="M512 85.333333C277.333333 85.333333 85.333333 277.333333 85.333333 512c0 46.933333 8.533333 91.733333 23.466667 136.533333 0 2.133333 2.133333 4.266667 2.133333 6.4 4.266667 10.666667 6.4 19.2 10.666667 27.733334 0 2.133333 2.133333 4.266667 2.133333 6.4 10.666667 21.333333 21.333333 42.666667 34.133334 61.866666 8.533333 12.8 19.2 25.6 29.866666 38.4 76.8 89.6 194.133333 149.333333 324.266667 149.333334s247.466667-59.733333 324.266667-151.466667c10.666667-12.8 21.333333-25.6 29.866666-38.4 12.8-19.2 23.466667-40.533333 34.133334-61.866667 0-2.133333 2.133333-2.133333 2.133333-4.266666 4.266667-10.666667 8.533333-19.2 12.8-29.866667 0-2.133333 2.133333-4.266667 2.133333-4.266667 14.933333-44.8 23.466667-89.6 23.466667-136.533333C938.666667 277.333333 746.666667 85.333333 512 85.333333z m0 806.4c-102.4 0-196.266667-40.533333-268.8-110.933333-10.666667-10.666667-19.2-21.333333-29.866667-34.133333 10.666667-12.8 21.333333-25.6 32-36.266667 70.4-70.4 166.4-110.933333 264.533334-110.933333 121.6 0 228.266667 57.6 298.666666 147.2-68.266667 89.6-174.933333 145.066667-296.533333 145.066666zM887.466667 576c-6.4 34.133333-17.066667 66.133333-29.866667 96-4.266667 10.666667-8.533333 19.2-14.933333 27.733333v2.133334c-2.133333 2.133333-2.133333 4.266667-4.266667 6.4C759.466667 614.4 642.133333 554.666667 512 554.666667c-130.133333 0-247.466667 59.733333-324.266667 153.6-2.133333-4.266667-4.266667-6.4-6.4-10.666667-4.266667-6.4-6.4-12.8-10.666666-19.2-2.133333-6.4-6.4-12.8-8.533334-19.2 0-2.133333-2.133333-4.266667-2.133333-4.266667-2.133333-6.4-6.4-14.933333-8.533333-21.333333v-2.133333c-6.4-17.066667-10.666667-36.266667-12.8-55.466667-4.266667-21.333333-6.4-42.666667-6.4-64 0-102.4 38.4-196.266667 110.933333-268.8C315.733333 170.666667 409.6 132.266667 512 132.266667c209.066667 0 379.733333 170.666667 379.733333 379.733333 0 21.333333-2.133333 42.666667-4.266666 64z" fill="#1296db" p-id="6654"></path></svg>